<?xml version="1.0" encoding="UTF-8" standalone="no"?>
<!DOCTYPE svg PUBLIC "-//W3C//DTD SVG 1.1//EN"
 "http://www.w3.org/Graphics/SVG/1.1/DTD/svg11.dtd">
<!-- Generated by graphviz version 14.1.3 (20260303.0454)
 -->
<!-- Title: QueueState Pages: 1 -->
<svg width="855pt" height="153pt"
 viewBox="0.00 0.00 855.00 153.00" xmlns="http://www.w3.org/2000/svg" xmlns:xlink="http://www.w3.org/1999/xlink">
<g id="graph0" class="graph" transform="scale(1 1) rotate(0) translate(18 134.54)">
<title>QueueState</title>
<polygon fill="#ffffff" stroke="none" points="-18,18 -18,-134.54 837.02,-134.54 837.02,18 -18,18"/>
<!-- queued -->
<g id="node1" class="node">
<title>queued</title>
<ellipse fill="#fef3c7" stroke="#334155" stroke-width="1.2" cx="29.92" cy="-25.27" rx="29.92" ry="18"/>
<text xml:space="preserve" text-anchor="middle" x="29.92" y="-21.77" font-family="Arial" font-size="10.00">Queued</text>
</g>
<!-- partial -->
<g id="node2" class="node">
<title>partial</title>
<ellipse fill="#ffedd5" stroke="#334155" stroke-width="1.2" cx="208.91" cy="-82.27" rx="56.07" ry="18"/>
<text xml:space="preserve" text-anchor="middle" x="208.91" y="-78.77" font-family="Arial" font-size="10.00">Partially delivered</text>
</g>
<!-- queued&#45;&gt;partial -->
<g id="edge2" class="edge">
<title>queued&#45;&gt;partial</title>
<path fill="none" stroke="#475569" d="M57.03,-33.68C84.18,-42.43 127.28,-56.3 160.47,-66.99"/>
<polygon fill="#475569" stroke="#475569" points="159.39,-69.22 166.81,-69.03 160.89,-64.56 159.39,-69.22"/>
<text xml:space="preserve" text-anchor="middle" x="106.33" y="-59.13" font-family="Arial" font-size="9.00">one succeeds</text>
</g>
<!-- retry -->
<g id="node3" class="node">
<title>retry</title>
<ellipse fill="#fee2e2" stroke="#334155" stroke-width="1.2" cx="426.98" cy="-58.27" rx="44.35" ry="18"/>
<text xml:space="preserve" text-anchor="middle" x="426.98" y="-54.77" font-family="Arial" font-size="10.00">Pending retry</text>
</g>
<!-- queued&#45;&gt;retry -->
<g id="edge3" class="edge">
<title>queued&#45;&gt;retry</title>
<path fill="none" stroke="#475569" d="M59.95,-27.31C117.25,-31.4 248.94,-41.08 359.48,-51.27 364.64,-51.75 370.02,-52.27 375.39,-52.81"/>
<polygon fill="#475569" stroke="#475569" points="375.07,-55.24 382.28,-53.51 375.56,-50.36 375.07,-55.24"/>
<text xml:space="preserve" text-anchor="middle" x="208.91" y="-44.93" font-family="Arial" font-size="9.00">both fail</text>
</g>
<!-- complete -->
<g id="node4" class="node">
<title>complete</title>
<ellipse fill="#dcfce7" stroke="#334155" stroke-width="1.2" cx="621.75" cy="-58.27" rx="54.27" ry="54.27"/>
<ellipse fill="none" stroke="#334155" stroke-width="1.2" cx="621.75" cy="-58.27" rx="58.27" ry="58.27"/>
<text xml:space="preserve" text-anchor="middle" x="621.75" y="-54.77" font-family="Arial" font-size="10.00">Delivered to both</text>
</g>
<!-- queued&#45;&gt;complete -->
<g id="edge1" class="edge">
<title>queued&#45;&gt;complete</title>
<path fill="none" stroke="#475569" d="M60.21,-23.89C131.62,-20.92 320.24,-15.39 476.48,-31.27 502.79,-33.94 531.47,-38.89 556.29,-43.82"/>
<polygon fill="#475569" stroke="#475569" points="555.71,-46.2 563.06,-45.19 556.68,-41.4 555.71,-46.2"/>
<text xml:space="preserve" text-anchor="middle" x="321.23" y="-25.1" font-family="Arial" font-size="9.00">both APIs succeed</text>
</g>
<!-- partial&#45;&gt;retry -->
<g id="edge5" class="edge">
<title>partial&#45;&gt;retry</title>
<path fill="none" stroke="#475569" d="M246.97,-68.6C258.36,-65.01 271.05,-61.63 282.98,-59.77 313,-55.09 346.98,-54.54 374.29,-55.25"/>
<polygon fill="#475569" stroke="#475569" points="373.95,-57.69 381.03,-55.45 374.1,-52.79 373.95,-57.69"/>
<text xml:space="preserve" text-anchor="middle" x="321.23" y="-61.72" font-family="Arial" font-size="9.00">remaining API fails</text>
</g>
<!-- partial&#45;&gt;complete -->
<g id="edge4" class="edge">
<title>partial&#45;&gt;complete</title>
<path fill="none" stroke="#475569" d="M260.13,-90.06C267.77,-90.98 275.57,-91.77 282.98,-92.27 399.68,-100.22 430.49,-94.72 545.48,-73.27 548.87,-72.64 552.35,-71.98 555.85,-71.31"/>
<polygon fill="#475569" stroke="#475569" points="556.17,-73.74 562.58,-70.01 555.24,-68.93 556.17,-73.74"/>
<text xml:space="preserve" text-anchor="middle" x="426.98" y="-97.55" font-family="Arial" font-size="9.00">remaining API succeeds</text>
</g>
<!-- retry&#45;&gt;partial -->
<g id="edge6" class="edge">
<title>retry&#45;&gt;partial</title>
<path fill="none" stroke="#475569" d="M386.35,-66.08C377.53,-67.64 368.21,-69.14 359.48,-70.27 331.28,-73.94 299.92,-76.66 273.24,-78.58"/>
<polygon fill="#475569" stroke="#475569" points="273.07,-76.13 266.26,-79.06 273.41,-81.02 273.07,-76.13"/>
<text xml:space="preserve" text-anchor="middle" x="321.23" y="-79.57" font-family="Arial" font-size="9.00">one recovers</text>
</g>
<!-- retry&#45;&gt;complete -->
<g id="edge7" class="edge">
<title>retry&#45;&gt;complete</title>
<path fill="none" stroke="#475569" d="M471.73,-58.27C496.19,-58.27 527.18,-58.27 554.55,-58.27"/>
<polygon fill="#475569" stroke="#475569" points="554.41,-60.72 561.41,-58.27 554.41,-55.82 554.41,-60.72"/>
<text xml:space="preserve" text-anchor="middle" x="519.98" y="-60.22" font-family="Arial" font-size="9.00">both recover</text>
</g>
<!-- archived -->
<g id="node5" class="node">
<title>archived</title>
<polygon fill="#e2e8f0" stroke="#334155" stroke-width="1.2" points="819.02,-76.27 764.77,-76.27 764.77,-40.27 819.02,-40.27 819.02,-76.27"/>
<text xml:space="preserve" text-anchor="middle" x="791.9" y="-54.77" font-family="Arial" font-size="10.00">Archived</text>
</g>
<!-- complete&#45;&gt;archived -->
<g id="edge8" class="edge">
<title>complete&#45;&gt;archived</title>
<path fill="none" stroke="#475569" d="M680.62,-58.27C705.78,-58.27 734.42,-58.27 756.2,-58.27"/>
<polygon fill="#475569" stroke="#475569" points="755.98,-60.72 762.98,-58.27 755.98,-55.82 755.98,-60.72"/>
<text xml:space="preserve" text-anchor="middle" x="722.4" y="-60.22" font-family="Arial" font-size="9.00">move JSON</text>
</g>
</g>
</svg>
